<svg xmlns="http://www.w3.org/2000/svg" width="1280" height="800" viewBox="0 0 1280 800" fill="none">
  <rect width="1280" height="800" rx="28" fill="#F3F7F6" />
  <rect x="42" y="42" width="1196" height="716" rx="20" fill="#FFFFFF" stroke="#D7E6E2" />
  <rect x="72" y="72" width="1136" height="70" rx="14" fill="#F9FAFB" stroke="#E6EAEE" />
  <rect x="94" y="92" width="240" height="28" rx="8" fill="#0F766E" opacity="0.2" />
  <rect x="72" y="164" width="350" height="564" rx="16" fill="#FAF7F0" stroke="#E9DFC8" />
  <rect x="444" y="164" width="764" height="564" rx="16" fill="#FFFFFF" stroke="#E6EAEE" />
  <rect x="468" y="194" width="270" height="26" rx="8" fill="#F06C3A" opacity="0.24" />
  <rect x="468" y="232" width="420" height="14" rx="6" fill="#B8C0CC" />
  <rect x="468" y="266" width="716" height="60" rx="10" fill="#F8FAFC" stroke="#E6EAEE" />
  <rect x="468" y="340" width="716" height="60" rx="10" fill="#F8FAFC" stroke="#E6EAEE" />
  <rect x="468" y="414" width="716" height="60" rx="10" fill="#F8FAFC" stroke="#E6EAEE" />
  <rect x="468" y="488" width="716" height="60" rx="10" fill="#F8FAFC" stroke="#E6EAEE" />
  <rect x="468" y="562" width="716" height="60" rx="10" fill="#F8FAFC" stroke="#E6EAEE" />
  <text x="640" y="760" text-anchor="middle" font-family="Arial, Helvetica, sans-serif" font-size="34" font-weight="700" fill="#6C7482">
    Employee Management Screenshot Placeholder
  </text>
</svg>
