<svg xmlns="http://www.w3.org/2000/svg" width="1280" height="800" viewBox="0 0 1280 800" fill="none">
  <rect width="1280" height="800" rx="28" fill="#F7F0E5" />
  <rect x="44" y="44" width="1192" height="78" rx="16" fill="#FFFFFF" stroke="#E7D7C0" />
  <rect x="70" y="70" width="220" height="24" rx="8" fill="#0F766E" opacity="0.22" />
  <rect x="44" y="148" width="286" height="608" rx="18" fill="#FFFFFF" stroke="#E7D7C0" />
  <rect x="356" y="148" width="880" height="188" rx="18" fill="#FFFFFF" stroke="#E7D7C0" />
  <rect x="356" y="362" width="420" height="394" rx="18" fill="#FFFFFF" stroke="#E7D7C0" />
  <rect x="816" y="362" width="420" height="394" rx="18" fill="#FFFFFF" stroke="#E7D7C0" />
  <rect x="382" y="176" width="420" height="20" rx="8" fill="#F06C3A" opacity="0.26" />
  <rect x="382" y="208" width="318" height="14" rx="6" fill="#B5BCC8" />
  <rect x="382" y="248" width="186" height="62" rx="12" fill="#0F766E" opacity="0.16" />
  <rect x="586" y="248" width="186" height="62" rx="12" fill="#F5C24F" opacity="0.22" />
  <rect x="790" y="248" width="186" height="62" rx="12" fill="#F06C3A" opacity="0.18" />
  <text x="640" y="760" text-anchor="middle" font-family="Arial, Helvetica, sans-serif" font-size="34" font-weight="700" fill="#6C7482">
    HRIS Dashboard Screenshot Placeholder
  </text>
</svg>
